<?xml version="1.0" encoding="utf-8"?><!DOCTYPE svg PUBLIC "-//W3C//DTD SVG 1.1//EN" "http://www.w3.org/Graphics/SVG/1.1/DTD/svg11.dtd"><svg xmlns="http://www.w3.org/2000/svg" width="640" height="640" viewBox="0 0 35 35" shape-rendering="crispEdges"><path fill="#fffaf0" d="M0 0h35v35H0z"/><path stroke="#080b0f" d="M1 1.5h7m4 0h1m1 0h1m2 0h2m1 0h2m1 0h1m1 0h1m1 0h7M1 2.5h1m5 0h1m2 0h1m1 0h1m2 0h3m1 0h1m1 0h3m1 0h1m1 0h1m5 0h1M1 3.5h1m1 0h3m1 0h1m1 0h1m1 0h4m1 0h1m1 0h3m1 0h4m1 0h1m1 0h3m1 0h1M1 4.5h1m1 0h3m1 0h1m1 0h3m1 0h1m1 0h2m1 0h2m2 0h1m1 0h2m1 0h1m1 0h3m1 0h1M1 5.5h1m1 0h3m1 0h1m3 0h1m5 0h3m1 0h1m1 0h2m2 0h1m1 0h3m1 0h1M1 6.5h1m5 0h1m8 0h1m1 0h1m1 0h3m2 0h1m1 0h1m5 0h1M1 7.5h7m1 0h1m1 0h1m1 0h1m1 0h1m1 0h1m1 0h1m1 0h1m1 0h1m1 0h1m1 0h7M12 8.5h1m1 0h4m1 0h1m4 0h1M4 9.5h2m1 0h2m1 0h6m1 0h2m1 0h1m3 0h2m4 0h2M1 10.5h2m1 0h1m1 0h1m2 0h2m4 0h1m1 0h3m1 0h1m1 0h4m1 0h5M1 11.5h1m2 0h1m2 0h1m1 0h1m1 0h4m5 0h1m1 0h1m1 0h1m1 0h1m1 0h1m1 0h4M3 12.5h3m4 0h1m2 0h1m3 0h3m1 0h1m2 0h1m2 0h3m1 0h3M2 13.5h1m4 0h1m1 0h2m2 0h1m1 0h1m1 0h1m3 0h5m1 0h1m1 0h1m3 0h1M1 14.5h6m3 0h1m1 0h1m1 0h1m2 0h1m3 0h4m6 0h2M1 15.5h1m2 0h2m1 0h2m2 0h5m3 0h2m6 0h1m1 0h1m1 0h1M2 16.5h1m7 0h1m1 0h2m3 0h3m7 0h1m1 0h1m1 0h2M1 17.5h1m1 0h2m1 0h2m1 0h5m2 0h1m3 0h1m3 0h1m1 0h6M1 18.5h5m2 0h1m1 0h2m1 0h1m1 0h1m1 0h1m1 0h1m1 0h1m1 0h1m1 0h6m1 0h2M4 19.5h2m1 0h1m2 0h2m2 0h1m1 0h1m2 0h1m3 0h2m4 0h3m1 0h1M2 20.5h5m1 0h1m1 0h2m1 0h2m2 0h1m2 0h2m1 0h4m1 0h1m1 0h4M1 21.5h1m1 0h1m1 0h3m1 0h1m4 0h1m1 0h3m2 0h1m5 0h2m1 0h1m1 0h1M1 22.5h3m4 0h1m2 0h2m2 0h1m1 0h3m3 0h1m1 0h1m1 0h1m1 0h4M1 23.5h1m4 0h2m1 0h1m1 0h1m2 0h2m2 0h3m1 0h1m1 0h1m2 0h1m1 0h1m2 0h2M1 24.5h1m1 0h3m2 0h1m1 0h1m1 0h1m3 0h1m7 0h2m2 0h2m1 0h2M1 25.5h2m3 0h4m2 0h3m1 0h1m1 0h1m1 0h1m3 0h6m3 0h1M9 26.5h4m4 0h1m1 0h2m1 0h2m1 0h1m3 0h1m1 0h1M1 27.5h7m1 0h1m1 0h2m2 0h5m1 0h1m2 0h2m1 0h1m1 0h1m1 0h1M1 28.5h1m5 0h1m2 0h1m1 0h2m3 0h1m1 0h1m2 0h4m3 0h4M1 29.5h1m1 0h3m1 0h1m1 0h1m1 0h2m1 0h4m1 0h1m2 0h8m2 0h1M1 30.5h1m1 0h3m1 0h1m1 0h4m2 0h1m1 0h2m2 0h3m2 0h1m1 0h1m3 0h1M1 31.5h1m1 0h3m1 0h1m3 0h2m2 0h1m2 0h1m1 0h1m3 0h2m3 0h2m1 0h2M1 32.5h1m5 0h1m2 0h1m1 0h1m1 0h7m2 0h2m1 0h2m2 0h1m1 0h2M1 33.5h7m2 0h6m5 0h1m2 0h2m1 0h1m1 0h1m1 0h1"/></svg>
